<svg width="27" height="25" viewBox="0 0 27 25" fill="none" xmlns="http://www.w3.org/2000/svg">
<path fill-rule="evenodd" clip-rule="evenodd" d="M23.5624 24.391C23.953 24.7815 24.5861 24.7815 24.9766 24.391C25.3672 24.0005 25.3672 23.3673 24.9766 22.9768L14.908 12.9081L26.0955 1.72053C26.4861 1.33001 26.4861 0.696844 26.0955 0.306321C25.705 -0.0842034 25.0718 -0.0842061 24.6813 0.306321L13.4937 11.4939L2.60164 0.601784C2.21112 0.211259 1.57795 0.211262 1.18743 0.601785C0.796905 0.99231 0.796903 1.62547 1.18743 2.016L12.0795 12.9081L2.30632 22.6813C1.91579 23.0718 1.91579 23.705 2.30632 24.0955C2.69684 24.4861 3.33001 24.4861 3.72053 24.0955L13.4937 14.3223L23.5624 24.391Z" fill="current"/>
</svg>
