<svg width="34" height="34" viewBox="0 0 36 36" fill="none" xmlns="http://www.w3.org/2000/svg">
<path d="M18.0005 12.3331C18.6446 12.3331 19.2623 12.589 19.7177 13.0444C20.1732 13.4999 20.429 14.1176 20.429 14.7617M18.0005 5.85693C20.3622 5.85693 22.6271 6.79511 24.2971 8.46508C25.9671 10.135 26.9052 12.4 26.9052 14.7617M18.0005 9.09503C19.5034 9.09503 20.9447 9.69205 22.0074 10.7548C23.0701 11.8175 23.6671 13.2588 23.6671 14.7617M12.3338 20.4284C14.4386 22.5331 19.0852 25.2855 21.2386 25.2855C22.1831 25.2953 23.1021 24.9782 23.8397 24.3881C24.5773 23.798 25.0883 22.9711 25.2862 22.0474V20.4284C25.2862 20.4284 23.2948 19.4569 22.0481 18.8093C20.8014 18.1617 18.81 20.4284 18.81 20.4284C17.2948 19.9347 15.911 19.1045 14.7624 17.9998C13.6577 16.8512 12.8274 15.4674 12.3338 13.9522C12.3338 13.9522 14.6005 11.9607 13.9528 10.7141C13.3052 9.46741 12.3338 7.47598 12.3338 7.47598H10.7148C9.79107 7.67382 8.96415 8.18483 8.37404 8.92246C7.78394 9.6601 7.46691 10.579 7.47666 11.5236C7.47666 13.6769 10.229 18.3236 12.3338 20.4284Z" stroke="#F5F7F8" stroke-width="1.42143" stroke-linecap="round" stroke-linejoin="round"/>
<path d="M18 1C9.17619 1 1 2.42476 1 15.5714C1 23.9905 4.36762 27.601 9.09524 29.1067V33.3324C9.05928 33.6879 9.14192 34.0453 9.33029 34.3489C9.51866 34.6525 9.80218 34.8853 10.1367 35.011C10.4711 35.1366 10.8378 35.1481 11.1795 35.0436C11.5212 34.9391 11.8187 34.7246 12.0257 34.4333L15.8143 30.1105H18C26.8238 30.1105 35 28.7019 35 15.539C35 2.37619 26.8238 1 18 1Z" stroke="#F5F7F8" stroke-width="1.42143" stroke-linecap="round" stroke-linejoin="round"/>
</svg>
