<svg width="86" height="86" viewBox="0 0 86 86" fill="none" xmlns="http://www.w3.org/2000/svg">
<path fill-rule="evenodd" clip-rule="evenodd" d="M18.8125 64.5366C18.0997 64.5366 17.4162 64.8197 16.9122 65.3237C16.4082 65.8277 16.125 66.5114 16.125 67.2241C16.125 67.9369 16.4082 68.6204 16.9122 69.1244C17.4162 69.6284 18.0997 69.9116 18.8125 69.9116H34.9375C35.6503 69.9116 36.3338 69.6284 36.8378 69.1244C37.3418 68.6204 37.625 67.9369 37.625 67.2241C37.625 66.5114 37.3418 65.8277 36.8378 65.3237C36.3338 64.8197 35.6503 64.5366 34.9375 64.5366H18.8125Z" fill="#DDD5C6"/>
<path fill-rule="evenodd" clip-rule="evenodd" d="M16.125 5.41162C15.6253 5.41208 15.1356 5.55181 14.711 5.81514C14.2863 6.07847 13.9435 6.45496 13.721 6.90234L5.65847 23.1218C5.48743 23.4756 5.39604 23.8627 5.39077 24.2556C5.38514 24.2765 5.37982 24.2975 5.37469 24.3185V77.974C5.37477 78.6867 5.6579 79.3703 6.16188 79.8743C6.66587 80.3782 7.34945 80.6614 8.06219 80.6615H77.9372C78.6499 80.6614 79.3334 80.3782 79.8374 79.8743C80.3414 79.3703 80.6246 78.6867 80.6247 77.974V24.3185V24.3131C80.6232 23.8994 80.5262 23.4916 80.3412 23.1216L72.2787 6.9021C72.0562 6.45481 71.7134 6.07842 71.2888 5.81514C70.8642 5.55186 70.3746 5.41212 69.875 5.41162H16.125ZM17.7837 10.7866H34.4704L32.7119 21.6311H12.3982L17.7837 10.7866ZM39.9083 10.7866H51.4719L53.2829 21.6311H38.1552L39.9083 10.7866ZM56.9204 10.7866H68.2111L73.6018 21.6311H58.7313L56.9204 10.7866ZM10.75 27.0061H32.25V53.7866C32.2502 54.318 32.408 54.8374 32.7033 55.2792C32.9987 55.721 33.4183 56.0654 33.9093 56.2687C34.4003 56.4721 34.9405 56.5254 35.4617 56.4218C35.9829 56.3182 36.4618 56.0624 36.8377 55.6868L45.6875 46.8369L54.5374 55.6868C54.9133 56.0624 55.3921 56.3182 55.9134 56.4218C56.4346 56.5254 56.9748 56.4721 57.4658 56.2687C57.9567 56.0654 58.3764 55.721 58.6717 55.2792C58.9671 54.8374 59.1248 54.318 59.125 53.7866V27.0061H75.25V75.2866H10.75V27.0061ZM37.625 27.0061H53.75V47.2988L47.5877 41.1365C47.0836 40.6327 46.4002 40.3496 45.6875 40.3496C44.9749 40.3496 44.2914 40.6327 43.7874 41.1365L37.625 47.2988V27.0061Z" fill="#DDD5C6"/>
</svg>
