<svg width="80" height="79" viewBox="0 0 80 79" fill="none" xmlns="http://www.w3.org/2000/svg">
<g clip-path="url(#clip0_32_274)">
<path d="M19.4141 5.83455C19.1947 5.8311 18.9769 5.87132 18.7732 5.95288C18.5696 6.03443 18.3842 6.15569 18.2279 6.30959C18.0716 6.46349 17.9474 6.64696 17.8627 6.8493C17.778 7.05165 17.7343 7.26883 17.7344 7.4882V11.2382L12.8841 16.0885V5.45695C12.8828 4.26649 13.3533 3.12404 14.1927 2.27987C15.0399 1.4498 16.1773 0.982704 17.3633 0.977783L75.5208 0.977783C76.7069 0.982704 77.8443 1.4498 78.6914 2.27987C79.5136 3.12955 79.9795 4.26165 79.9935 5.44393V53.2174C79.9935 54.4088 79.7005 55.7825 78.6914 56.3879C77.849 57.2212 76.7122 57.689 75.5273 57.69H40.1563C39.9416 56.5422 39.5874 55.425 39.1016 54.3632L40.6641 52.8072H73.5091C73.9443 52.8038 74.3606 52.6289 74.6677 52.3206C74.9748 52.0123 75.148 51.5953 75.1497 51.1601V7.4882C75.1497 7.04963 74.9755 6.62901 74.6654 6.3189C74.3553 6.00878 73.9347 5.83455 73.4961 5.83455H64.5117V23.0416L55.0195 18.2955L45.5729 23.0416V5.83455H19.4141ZM6.08073 51.5637L4.01042 63.2825C3.98175 63.4357 3.91453 63.5791 3.8151 63.6991C3.28282 64.3056 2.92111 65.0425 2.76693 65.8346C2.70768 66.0429 2.70669 66.2636 2.76409 66.4725C2.82148 66.6814 2.93505 66.8706 3.09245 67.0195L10.599 74.5455C11.0977 75.0341 11.7337 75.3589 12.4219 75.4765C13.2144 75.7198 14.0579 75.7445 14.8633 75.5481H14.9219L16.3346 75.1965C18.5026 74.6692 20.3906 74.2004 22.1484 72.5924L24.401 70.2421C24.4278 70.2024 24.4583 70.1653 24.4922 70.1314C24.5247 70.1314 24.7461 69.8775 25.0456 69.5976C26.582 68.0872 28.4961 66.2252 27.3307 64.5976L26.4258 63.6926C25.9896 64.1158 25.5273 64.526 25.0846 64.9296C24.6419 65.3333 24.2969 65.6197 23.9453 65.9713C23.7666 66.15 23.5242 66.2504 23.2715 66.2504C23.0187 66.2504 22.7764 66.15 22.5977 65.9713C22.4189 65.7926 22.3185 65.5502 22.3185 65.2974C22.3185 65.0447 22.4189 64.8023 22.5977 64.6236C22.9427 64.2721 23.3789 63.8879 23.8216 63.4908C25.3516 62.1497 27.0768 60.6067 26.1589 59.259L25.2669 58.3671L25.1367 58.2043C24.6224 58.7317 24.056 59.233 23.5026 59.7213C23.099 60.0793 22.7214 60.4114 22.3698 60.7629C22.1906 60.9407 21.9484 61.0404 21.696 61.0404C21.4436 61.0404 21.2014 60.9407 21.0221 60.7629C20.9326 60.6751 20.8614 60.5702 20.8129 60.4545C20.7643 60.3388 20.7393 60.2146 20.7393 60.0891C20.7393 59.9636 20.7643 59.8394 20.8129 59.7237C20.8614 59.608 20.9326 59.5032 21.0221 59.4153C21.3672 59.0637 21.8034 58.6796 22.2461 58.289C23.776 56.9413 25.5013 55.3984 24.5833 54.0507L23.6914 53.1588C23.6317 53.0954 23.5792 53.0255 23.5352 52.9504L20.931 55.5546C20.7523 55.7333 20.5099 55.8337 20.2572 55.8337C20.0044 55.8337 19.762 55.7333 19.5833 55.5546C19.4046 55.3759 19.3042 55.1335 19.3042 54.8808C19.3042 54.628 19.4046 54.3857 19.5833 54.207L24.4987 49.2916C25.6771 48.1132 25.944 46.8892 25.638 45.9583C25.5273 45.6197 25.638 45.6132 25.3906 45.3723C25.2672 45.2499 25.1295 45.1428 24.9805 45.0533C24.9089 45.0533 24.8568 45.0142 24.7852 44.9426C24.7012 44.9012 24.6141 44.8664 24.5247 44.8385C23.7109 44.565 22.9362 45.0468 21.8685 45.9517L21.8229 45.9908C21.7057 46.0885 21.5885 46.1926 21.4714 46.3098L11.2435 56.5377C11.0643 56.7154 10.8221 56.8151 10.5697 56.8151C10.3173 56.8151 10.0751 56.7154 9.89583 56.5377C9.7321 56.3769 9.63254 56.162 9.61576 55.9331C9.59899 55.7043 9.66615 55.4771 9.80469 55.2942L6.08073 51.5637ZM12.2396 52.2668L12.5716 51.9413L19.2969 45.2096C18.0213 44.6355 16.9625 43.6689 16.275 42.4507C15.5875 41.2325 15.3072 39.8265 15.475 38.4378C15.6428 37.0491 16.25 35.7503 17.2079 34.731C18.1659 33.7117 19.4244 33.0251 20.8001 32.7715C22.1757 32.5178 23.5963 32.7103 24.8548 33.321C26.1133 33.9316 27.1438 34.9284 27.7959 36.1659C28.448 37.4034 28.6876 38.8169 28.4798 40.2002C28.2719 41.5834 27.6276 42.8641 26.6406 43.8554L26.5755 43.9205C26.6286 43.9649 26.6786 44.0127 26.7253 44.0637C26.9326 44.2602 27.1181 44.4785 27.2786 44.7148L35.625 36.401C35.0115 35.7817 34.6674 34.9452 34.6674 34.0735C34.6674 33.2018 35.0115 32.3653 35.625 31.746L29.4076 25.5286C28.791 26.1448 27.955 26.4909 27.0833 26.4909C26.2116 26.4909 25.3756 26.1448 24.7591 25.5286L7.46094 42.8267C8.07439 43.4461 8.41854 44.2825 8.41854 45.1542C8.41854 46.0259 8.07439 46.8624 7.46094 47.4817L12.2396 52.2668ZM26.9141 50.0533C26.6774 50.3845 26.4116 50.6939 26.1198 50.9778L25.1497 51.9543C25.2252 51.9979 25.2951 52.0504 25.3581 52.1106L26.2891 53.0481C26.3397 53.1002 26.3855 53.1569 26.4258 53.2174C26.8803 53.7589 27.1433 54.4354 27.1739 55.1417C27.2045 55.8481 27.001 56.5448 26.5951 57.1236C26.7248 57.1714 26.8426 57.247 26.9401 57.345L27.8711 58.276C27.9222 58.33 27.968 58.3889 28.0078 58.4517C28.4866 59.0342 28.7483 59.7648 28.7483 60.5188C28.7483 61.2728 28.4866 62.0034 28.0078 62.5859C28.05 62.6145 28.0892 62.6472 28.125 62.6835L29.056 63.6145C29.1051 63.6702 29.1508 63.7289 29.1927 63.7903C31.3607 66.7525 28.776 69.2655 26.6992 71.2968L26.1654 71.8307L23.8542 74.259L23.776 74.3306C21.6602 76.2838 19.5573 76.7655 17.1289 77.358L15.7422 77.703H15.7031C14.5446 78.0479 13.3245 78.1346 12.1289 77.957C11.0571 77.7744 10.068 77.265 9.29688 76.4986L1.23047 68.3932C0.83872 68.03 0.551245 67.5686 0.397849 67.0569C0.244453 66.5452 0.23072 66.0018 0.358073 65.483C0.652184 64.3577 1.19753 63.3138 1.95313 62.4296L4.07552 50.2096V50.1575C4.07552 50.0077 4.1276 49.8385 4.16016 49.6497L0 45.496L27.4479 18.0481L43.1836 33.7838L26.9076 50.0598L26.9141 50.0533Z" fill="#DDD5C6"/>
</g>
<defs>
<clipPath id="clip0_32_274">
<rect width="80" height="77.0443" fill="white" transform="translate(0 0.977783)"/>
</clipPath>
</defs>
</svg>
