<svg width="24" height="25" viewBox="0 0 24 25" fill="none" xmlns="http://www.w3.org/2000/svg">
<path d="M23.9328 7.05387C23.8752 5.77605 23.6687 4.90175 23.3759 4.13794C23.0686 3.35011 22.6605 2.67757 21.9932 2.01464C21.3259 1.35171 20.6585 0.933777 19.8712 0.631135C19.1078 0.333296 18.234 0.131535 16.957 0.0738887C15.6751 0.0162426 15.2671 0.00183105 12.012 0.00183105C8.75215 0.00183105 8.34407 0.0162426 7.06701 0.0738887C5.78996 0.131535 4.91618 0.3381 4.15283 0.631135C3.36067 0.938581 2.68854 1.34691 2.02601 2.01464C1.36347 2.68238 0.945791 3.35011 0.64333 4.13794C0.350471 4.90175 0.14403 5.77605 0.0864187 7.05387C0.0288072 8.3365 0.0144043 8.74483 0.0144043 12.0018C0.0144043 15.2636 0.0288072 15.672 0.0864187 16.9498C0.14403 18.2276 0.350471 19.1019 0.64333 19.8657C0.950591 20.6536 1.35867 21.3261 2.02601 21.989C2.68854 22.6568 3.36067 23.0699 4.14803 23.3725C4.91138 23.6704 5.78516 23.8721 7.06221 23.9298C8.34407 23.9874 8.75215 24.0018 12.0072 24.0018C15.2671 24.0018 15.6751 23.9874 16.9522 23.9298C18.2292 23.8721 19.103 23.6656 19.8664 23.3725C20.6537 23.0651 21.3259 22.6568 21.9884 21.989C22.6509 21.3213 23.0686 20.6536 23.3711 19.8657C23.6687 19.1019 23.8704 18.2276 23.928 16.9498C23.9856 15.6672 24 15.2588 24 12.0018C24 8.74483 23.9904 8.3317 23.9328 7.05387ZM21.7772 16.8537C21.7243 18.0259 21.5275 18.6648 21.3643 19.0827C21.1482 19.6399 20.8842 20.0435 20.4617 20.4662C20.0392 20.8889 19.6407 21.1435 19.079 21.3693C18.6565 21.5327 18.018 21.7296 16.8514 21.7825C15.5887 21.8401 15.2094 21.8545 12.0024 21.8545C8.79536 21.8545 8.41608 21.8401 7.15343 21.7825C5.982 21.7296 5.34347 21.5327 4.92579 21.3693C4.36887 21.1532 3.96559 20.8889 3.54311 20.4662C3.12063 20.0435 2.86617 19.6447 2.64053 19.0827C2.4773 18.66 2.28046 18.021 2.22765 16.8537C2.17004 15.5903 2.15563 15.2108 2.15563 12.0018C2.15563 8.79286 2.17004 8.41336 2.22765 7.14995C2.28046 5.97781 2.4773 5.3389 2.64053 4.92097C2.85657 4.36372 3.12063 3.9602 3.54311 3.53746C3.96559 3.11472 4.36407 2.86012 4.92579 2.63434C5.34827 2.47101 5.9868 2.27405 7.15343 2.22121C8.41608 2.16356 8.79536 2.14915 12.0024 2.14915C15.2094 2.14915 15.5887 2.16356 16.8514 2.22121C18.0228 2.27405 18.6613 2.47101 19.079 2.63434C19.6359 2.85051 20.0392 3.11472 20.4617 3.53746C20.8842 3.9602 21.1386 4.35892 21.3643 4.92097C21.5275 5.34371 21.7243 5.98262 21.7772 7.14995C21.8348 8.41336 21.8492 8.79286 21.8492 12.0018C21.8492 15.2108 21.83 15.5903 21.7772 16.8537Z" fill="current"/>
<path d="M12.0021 5.83386C8.5934 5.83386 5.83765 8.59607 5.83765 12.002C5.83765 15.4127 8.5982 18.1701 12.0021 18.1701C15.406 18.1701 18.1665 15.4031 18.1665 12.002C18.1665 8.59127 15.4108 5.83386 12.0021 5.83386ZM12.0021 16.0036C9.79364 16.0036 8.00288 14.2118 8.00288 12.002C8.00288 9.79223 9.79364 8.0004 12.0021 8.0004C14.2105 8.0004 16.0013 9.79223 16.0013 12.002C16.0013 14.2118 14.2105 16.0036 12.0021 16.0036Z" fill="current"/>
<path d="M18.4068 7.03465C19.2023 7.03465 19.8471 6.38942 19.8471 5.5935C19.8471 4.79757 19.2023 4.15234 18.4068 4.15234C17.6114 4.15234 16.9666 4.79757 16.9666 5.5935C16.9666 6.38942 17.6114 7.03465 18.4068 7.03465Z" fill="current"/>
<path d="M0 12.0018C0 15.2636 0.0144029 15.672 0.0720144 16.9498C0.129626 18.2276 0.336067 19.1019 0.628926 19.8657C0.936187 20.6536 1.34427 21.3261 2.0116 21.989C2.67413 22.652 3.34627 23.0699 4.13363 23.3725C4.89698 23.6704 5.77075 23.8721 7.04781 23.9298C8.32967 23.9874 8.73775 24.0018 11.9928 24.0018C15.2527 24.0018 15.6607 23.9874 16.9378 23.9298C18.2148 23.8721 19.0886 23.6656 19.852 23.3725C20.6393 23.0651 21.3115 22.6568 21.974 21.989C22.6365 21.3261 23.0542 20.6536 23.3567 19.8657C23.6543 19.1019 23.856 18.2276 23.9136 16.9498C23.9712 15.6672 23.9856 15.2588 23.9856 12.0018C23.9856 8.74002 23.9712 8.3317 23.9136 7.05387C23.856 5.77605 23.6495 4.90175 23.3567 4.13794C23.0494 3.35011 22.6413 2.67757 21.974 2.01464C21.3163 1.34691 20.6441 0.933777 19.8568 0.631135C19.0934 0.333296 18.2196 0.131535 16.9426 0.0738887C15.6607 0.0162426 15.2526 0.00183105 11.9976 0.00183105C8.73775 0.00183105 8.32967 0.0162426 7.05261 0.0738887C5.77555 0.131535 4.90178 0.3381 4.13843 0.631135C3.35107 0.938581 2.67894 1.34691 2.0164 2.01464C1.35387 2.68238 0.936187 3.35011 0.633727 4.13794C0.336067 4.90175 0.129626 5.77605 0.0720144 7.05387C0.0144029 8.3317 0 8.74002 0 12.0018ZM2.16523 12.0018C2.16523 8.79767 2.17964 8.41336 2.23725 7.14995C2.29006 5.97781 2.4869 5.3389 2.65013 4.92097C2.86617 4.36372 3.13023 3.9602 3.55271 3.53746C3.97519 3.11472 4.37367 2.86012 4.93539 2.63434C5.35787 2.47101 5.9964 2.27405 7.16303 2.22121C8.42568 2.16356 8.80496 2.14915 12.012 2.14915C15.219 2.14915 15.5983 2.16356 16.861 2.22121C18.0324 2.27405 18.6709 2.47101 19.0886 2.63434C19.6455 2.85051 20.0488 3.11472 20.4713 3.53746C20.8938 3.9602 21.1482 4.35892 21.3739 4.92097C21.5371 5.34371 21.7339 5.98262 21.7868 7.14995C21.8444 8.41336 21.8588 8.79286 21.8588 12.0018C21.8588 15.2108 21.8444 15.5903 21.7868 16.8537C21.7339 18.0259 21.5371 18.6648 21.3739 19.0827C21.1578 19.6399 20.8938 20.0435 20.4713 20.4662C20.0488 20.8889 19.6503 21.1435 19.0886 21.3693C18.6661 21.5327 18.0276 21.7296 16.861 21.7825C15.5983 21.8401 15.219 21.8545 12.012 21.8545C8.80496 21.8545 8.42568 21.8401 7.16303 21.7825C5.9916 21.7296 5.35307 21.5327 4.93539 21.3693C4.37848 21.1532 3.97519 20.8889 3.55271 20.4662C3.13023 20.0435 2.87578 19.6447 2.65013 19.0827C2.4869 18.66 2.29006 18.021 2.23725 16.8537C2.17483 15.5903 2.16523 15.206 2.16523 12.0018Z" fill="current"/>
</svg>
