<svg width="102" height="70" viewBox="0 0 102 70" fill="none" xmlns="http://www.w3.org/2000/svg">
<g clip-path="url(#clip0_32_266)">
<path fill-rule="evenodd" clip-rule="evenodd" d="M23.9395 10.6209L27.8823 10.6948L19.1582 39.1564C20.3618 39.4521 21.499 39.8053 22.5698 40.2078C21.5156 39.8135 20.4033 39.4686 19.2246 39.1728C11.5713 37.4725 5.24609 39.9532 0 45.8509L6.53271 48.8983L34.2822 61.8518C34.498 60.1679 34.5977 58.5908 34.5645 57.1041C34.5728 57.3176 34.5894 57.5394 34.5894 57.7612H66.4395C66.4478 64.5214 71.9927 69.9919 78.8242 69.9919C85.6558 69.9919 91.2007 64.5131 91.209 57.7612H101.635C102.357 43.7398 95.6665 32.9548 83.9458 31.9199H99.7173C100.971 31.9199 101.992 30.9013 101.992 29.6692V27.1968C101.992 25.9729 100.979 24.979 99.7505 24.979H99.5513V8.04165C99.5513 6.93276 98.6299 6.021 97.5093 6.021H68.1245C67.0039 6.021 66.0825 6.93276 66.0825 8.04165V24.9708H51.5562C50.0205 24.9215 49.207 25.6115 49.1987 27.1311V31.9281V35.0658C55.7397 40.1585 56.7358 48.1179 50.7676 52.6028H41.0889C40.8398 44.972 36.4321 40.3228 29.1108 35.1808L33.4771 21.8659C35.2783 17.726 34.0913 14.5882 31.46 12.3951C32.2817 9.78303 32.8711 7.54881 32.6885 5.7253L37.2622 6.6617C38.748 6.96562 39.1299 7.49131 39.6113 6.07029C39.6943 5.82387 39.7607 5.58566 39.8022 5.33924C40.1758 3.39251 39.9434 3.52394 38.3496 3.22002L33.4687 2.28362H32.0161L30.2231 1.28972C29.1523 0.68188 28.04 0.320462 26.9028 0.17261L25.334 0.0740412C23.7236 0.0740412 21.9141 -0.369517 20.9844 1.1008C20.9678 1.12544 20.9595 1.21579 20.9512 1.34722C20.2954 1.569 19.731 2.05362 19.3076 2.71896C18.7847 3.52394 18.4692 4.62462 18.4692 5.82387C18.4692 7.02311 18.793 8.12379 19.3076 8.92877C19.8887 9.83231 20.7271 10.4073 21.6899 10.4319C22.2461 10.8262 23.126 10.6044 23.9395 10.6209ZM85.606 20.0177H95.9487V21.8166H85.606V20.0177ZM77.7451 7.78702H85.2158V15.8203L81.2979 12.814L77.7451 15.8203V7.78702ZM85.606 24.6997H95.9487V26.4986H85.606V24.6997ZM6.56592 48.9229L17.606 54.0977L14.02 52.4714C11.5547 52.9889 9.71191 55.1574 9.71191 57.7448C9.71191 60.7265 12.1523 63.1414 15.1655 63.1414C18.1787 63.1414 20.6191 60.7265 20.6191 57.7448C20.6191 56.8248 20.3867 55.9623 19.98 55.1984L27.5171 58.7305C27.0107 65.0388 21.6733 70.0001 15.1738 70.0001C8.33399 70.0001 2.78906 64.5131 2.78906 57.7448C2.77246 54.2785 4.2251 51.1489 6.56592 48.9229ZM20.9761 3.45001C21.0259 5.0271 21.1338 7.05597 21.2085 8.4195C21.0757 8.3045 20.9429 8.15665 20.8267 7.96773C20.478 7.43382 20.2705 6.66991 20.2705 5.81565C20.2705 4.96139 20.4863 4.19749 20.8267 3.66357C20.8765 3.58965 20.9263 3.51572 20.9761 3.45001ZM73.3789 57.7612H84.2861C84.2778 60.7347 81.8374 63.1332 78.8325 63.1332C75.8276 63.1332 73.3872 60.7347 73.3789 57.7612Z" fill="#DDD5C6"/>
</g>
<defs>
<clipPath id="clip0_32_266">
<rect width="102" height="70" fill="white"/>
</clipPath>
</defs>
</svg>
