<svg width="24" height="22" viewBox="0 0 24 22" fill="current" xmlns="http://www.w3.org/2000/svg">
<path d="M9.55462 21.0011C9.47562 21.0011 9.39563 20.9881 9.31763 20.9621C9.01063 20.8591 8.80464 20.5731 8.80464 20.2511V13.4262C8.80464 13.2113 8.89664 13.0073 9.05763 12.8643L12.2196 10.0623L6.99568 13.0993C6.77868 13.2253 6.51069 13.2343 6.2837 13.1223L0.41483 10.1973C0.148836 10.0653 -0.0131599 9.78833 0.000839794 9.49234C0.0148395 9.19535 0.200835 8.93535 0.477829 8.82735L22.9773 0.0525548C23.2303 -0.0494428 23.5213 -0.000443955 23.7323 0.177552C23.9423 0.353548 24.0393 0.630542 23.9853 0.899535L20.0724 20.3991C20.0244 20.6351 19.8674 20.8341 19.6474 20.9341C19.4284 21.0341 19.1734 21.0231 18.9654 20.9031L12.6916 17.3302L10.1546 20.7031C10.0096 20.8941 9.78562 21.0011 9.55462 21.0011ZM12.4886 15.6012C12.6156 15.6012 12.7435 15.6332 12.8595 15.6992L18.8044 19.0851L22.2433 1.94851L2.59978 9.61034L6.59169 11.6003L17.9814 4.97844C18.3144 4.78245 18.7414 4.87544 18.9654 5.18744C19.1924 5.49943 19.1444 5.93242 18.8554 6.18841L10.3046 13.7642V18.0081L11.8896 15.9012C12.0356 15.7062 12.2606 15.6012 12.4886 15.6012Z" fill="current"/>
</svg>
